HIERARCHY
ROOT Hips
{
	OFFSET 32.682701 11.489584 98.680901
	CHANNELS 6 Xposition Yposition Zposition Xrotation Yrotation Zrotation
	JOINT spine
	{
		OFFSET 0.000000 -0.477352 8.301041
		CHANNELS 3 Xrotation Yrotation Zrotation
		JOINT spine1
		{
			OFFSET 0.000000 -0.000002 10.456497
			CHANNELS 3 Xrotation Yrotation Zrotation
			JOINT spine2
			{
				OFFSET 0.000000 -0.000002 10.019203
				CHANNELS 3 Xrotation Yrotation Zrotation
				JOINT Neck
				{
					OFFSET 0.000000 -1.226414 25.723495
					CHANNELS 3 Xrotation Yrotation Zrotation
					JOINT Head
					{
						OFFSET 0.000000 -0.000001 7.771744
						CHANNELS 3 Xrotation Yrotation Zrotation
						End Site
						{
							OFFSET 0.000000 6.203936 18.811996
						}
					}
				}
				JOINT RightShoulder
				{
					OFFSET -4.218800 0.587437 10.820007
					CHANNELS 3 Xrotation Yrotation Zrotation
					JOINT RightArm
					{
						OFFSET 0.000000 -0.000002 14.191406
						CHANNELS 3 Xrotation Yrotation Zrotation
						JOINT RightArmRoll
						{
							OFFSET 0.000000 -0.000001 7.164078
							CHANNELS 3 Xrotation Yrotation Zrotation
							JOINT RightForeArm
							{
								OFFSET 0.000000 -0.000004 20.866501
								CHANNELS 3 Xrotation Yrotation Zrotation
								JOINT RightForeArmRoll
								{
									OFFSET 0.000000 -0.000001 8.039215
									CHANNELS 3 Xrotation Yrotation Zrotation
									JOINT RightHand
									{
										OFFSET 0.000000 -0.000003 16.132996
										CHANNELS 3 Xrotation Yrotation Zrotation
										End Site
										{
											OFFSET 0.000000 0.000000 0.100006
										}
									}
								}
							}
						}
					}
				}
				JOINT LeftShoulder
				{
					OFFSET 4.218800 0.587437 10.820007
					CHANNELS 3 Xrotation Yrotation Zrotation
					JOINT LeftArm
					{
						OFFSET 0.000000 -0.000002 14.191406
						CHANNELS 3 Xrotation Yrotation Zrotation
						JOINT LeftArmRoll
						{
							OFFSET 0.000000 -0.000001 7.164078
							CHANNELS 3 Xrotation Yrotation Zrotation
							JOINT LeftForeArm
							{
								OFFSET 0.000000 -0.000004 20.866501
								CHANNELS 3 Xrotation Yrotation Zrotation
								JOINT LeftForeArmRoll
								{
									OFFSET 0.000000 -0.000001 8.039215
									CHANNELS 3 Xrotation Yrotation Zrotation
									JOINT LeftHand
									{
										OFFSET 0.000000 -0.000003 16.132996
										CHANNELS 3 Xrotation Yrotation Zrotation
										End Site
										{
											OFFSET 0.000000 0.000000 0.100006
										}
									}
								}
							}
						}
					}
				}
			}
		}
	}
	JOINT RightUpLeg
	{
		OFFSET -7.357731 1.131810 -1.349213
		CHANNELS 3 Xrotation Yrotation Zrotation
		JOINT RightUpLegRoll
		{
			OFFSET 0.000000 -0.000003 18.916801
			CHANNELS 3 Xrotation Yrotation Zrotation
			JOINT RightLeg
			{
				OFFSET 0.000000 0.000004 -23.425598
				CHANNELS 3 Xrotation Yrotation Zrotation
				JOINT RightLegRoll
				{
					OFFSET 0.000000 -0.000004 23.502304
					CHANNELS 3 Xrotation Yrotation Zrotation
					JOINT RightFoot
					{
						OFFSET 0.000000 -0.000003 19.561707
						CHANNELS 3 Xrotation Yrotation Zrotation
						JOINT RightToeBase
						{
							OFFSET 0.000000 -0.000003 16.352600
							CHANNELS 3 Xrotation Yrotation Zrotation
							End Site
							{
								OFFSET 0.006931 0.912835 7.919434
							}
						}
					}
				}
			}
		}
	}
	JOINT LeftUpLeg
	{
		OFFSET 7.357731 1.131810 -1.349213
		CHANNELS 3 Xrotation Yrotation Zrotation
		JOINT LeftUpLegRoll
		{
			OFFSET 0.000000 -0.000003 18.916901
			CHANNELS 3 Xrotation Yrotation Zrotation
			JOINT LeftLeg
			{
				OFFSET 0.000000 -0.000004 23.425499
				CHANNELS 3 Xrotation Yrotation Zrotation
				JOINT LeftLegRoll
				{
					OFFSET 0.000000 -0.000004 23.719498
					CHANNELS 3 Xrotation Yrotation Zrotation
					JOINT LeftFoot
					{
						OFFSET 0.000000 -0.000003 19.344406
						CHANNELS 3 Xrotation Yrotation Zrotation
						JOINT LeftToeBase
						{
							OFFSET 0.000000 -0.000003 16.352600
							CHANNELS 3 Xrotation Yrotation Zrotation
							End Site
							{
								OFFSET -0.031063 0.912836 7.919434
							}
						}
					}
				}
			}
		}
	}
}
MOTION
Frames: 7
Frame Time: 0.041667
31.868395 2.894582 96.581100 -3.090689 -0.004831 4.619829 -0.993571 -0.268424 0.487173 2.017998 -0.531312 0.972272 3.663010 -0.519628 0.978571 21.650113 -6.210657 -1.098616 -17.873883 10.001691 -0.726588 -14.704173 -38.273781 -16.718701 -133.639140 -164.889974 -89.115459 -0.000002 0.000002 0.000001 72.681880 8.340056 4.825307 -0.000004 -0.000004 -3.003600 -5.000197 -7.998724 0.000170 -11.053739 38.901127 11.858259 -136.507464 155.006266 98.313272 -0.000000 -0.000020 -0.000001 56.888635 -3.255722 0.037270 0.000001 -0.000005 3.000170 -5.000229 7.998771 -0.000154 -4.734107 -158.817061 7.766617 -179.999991 0.000006 -1.588997 156.432642 0.802936 -1.173765 -0.000000 0.000008 0.231471 67.193933 6.968926 2.049230 25.574723 -7.355245 0.142597 -12.900186 158.195787 -5.414365 -0.000005 -0.000002 -1.657121 -27.506534 -0.669399 0.947648 -0.000005 0.000003 -0.284931 66.169561 -7.138999 -1.718167 25.587647 7.355129 -0.158101 
31.859997 2.891383 96.919403 -3.087591 0.024426 4.624978 -0.992076 -0.263016 0.486612 2.020943 -0.520392 0.971212 3.665954 -0.508723 0.977378 21.642143 -6.481772 -1.020805 -17.873446 10.176537 -0.649439 -14.709082 -38.864470 -16.745793 -133.895272 -164.266815 -89.549955 0.000001 0.000000 -0.000000 72.478689 8.199214 4.674555 -0.000005 -0.000005 -3.003602 -5.000197 -7.998724 0.000171 -11.016352 38.947330 11.811963 -136.397894 154.228240 98.497694 -0.000001 -0.000020 0.000000 56.822775 -3.166686 0.078446 0.000001 -0.000007 3.000170 -5.000230 7.998768 -0.000155 -4.513062 -159.009591 7.757275 -179.999991 0.000006 -1.597002 157.002731 0.712497 -1.191616 -0.000003 0.000009 0.173467 66.881861 6.989024 2.030938 25.456959 -7.355623 0.000005 -12.640715 158.305193 -5.448013 -0.000006 -0.000005 -1.655970 -27.013202 -0.581414 0.965094 -0.000005 0.000000 -0.263849 66.081213 -7.137107 -1.728624 25.456964 7.355613 -0.000002 
31.867296 2.938125 97.227402 -3.092751 0.052994 4.626752 -0.987592 -0.258125 0.485550 2.029861 -0.510648 0.969157 3.674870 -0.499004 0.975208 21.617825 -6.744232 -0.945343 -17.865584 10.352300 -0.574112 -14.712502 -39.447880 -16.771210 -134.140940 -163.653901 -89.966050 0.000001 -0.000002 -0.000002 72.265806 8.061426 4.530275 -0.000003 -0.000004 -3.003603 -5.000197 -7.998720 0.000166 -10.982390 39.005448 11.770817 -136.301261 153.459611 98.668100 -0.000003 -0.000019 -0.000000 56.765193 -3.081159 0.118814 0.000002 -0.000006 3.000160 -5.000230 7.998773 -0.000155 -4.296144 -159.206560 7.744531 -179.999991 0.000006 -1.602999 157.542193 0.622887 -1.204533 -0.000002 0.000008 0.125794 66.622997 7.007052 2.016659 25.372908 -7.355583 -0.101612 -12.374351 158.417618 -5.480013 -0.000005 -0.000004 -1.653999 -26.526269 -0.496157 0.980394 -0.000005 0.000003 -0.243931 66.001737 -7.135116 -1.740176 25.363115 7.355543 0.113422 
31.882399 2.934800 97.561401 -3.109112 0.081060 4.626713 -0.979120 -0.253313 0.484363 2.046759 -0.501186 0.966865 3.691764 -0.489570 0.972802 21.571221 -7.005939 -0.870157 -17.845160 10.528155 -0.498852 -14.716817 -40.038340 -16.798562 -134.389340 -163.053227 -90.380396 0.000001 0.000001 0.000000 72.043934 7.925218 4.388772 -0.000005 -0.000002 -3.003600 -5.000196 -7.998720 0.000167 -10.951001 39.064622 11.732753 -136.189956 152.692431 98.807607 -0.000002 -0.000020 -0.000000 56.719670 -2.996639 0.156378 0.000001 -0.000010 3.000160 -5.000230 7.998776 -0.000155 -4.075847 -159.411793 7.730017 -179.999991 0.000006 -1.607999 158.061601 0.535215 -1.211431 -0.000002 0.000008 0.088394 66.416828 7.019645 2.009760 25.310569 -7.355363 -0.177044 -12.098885 158.532953 -5.511411 -0.000004 -0.000001 -1.651103 -26.046325 -0.414829 0.993051 -0.000004 0.000000 -0.227517 65.942034 -7.131084 -1.754806 25.293391 7.355274 0.197611 
31.893396 2.921289 97.871101 -3.134897 0.108622 4.624979 -0.967261 -0.248618 0.483049 2.070436 -0.492066 0.964326 3.715439 -0.480480 0.970154 21.505544 -7.265434 -0.795842 -17.814419 10.703050 -0.423943 -14.721831 -40.633492 -16.827262 -134.639366 -162.463317 -90.791212 0.000001 0.000000 -0.000002 71.813155 7.790827 4.250250 -0.000003 -0.000004 -3.003601 -5.000197 -7.998722 0.000167 -10.921602 39.125899 11.697198 -136.066166 151.927818 98.918536 -0.000003 -0.000020 -0.000000 56.685010 -2.913470 0.191331 0.000001 -0.000008 3.000160 -5.000229 7.998775 -0.000155 -3.854292 -159.622382 7.713125 -179.999991 0.000005 -1.612001 158.560506 0.451447 -1.213726 -0.000001 0.000008 0.060267 66.258504 7.027243 2.009199 25.267626 -7.355128 -0.228983 -11.816651 158.649435 -5.541308 -0.000004 -0.000002 -1.647359 -25.573869 -0.336994 1.003360 -0.000003 0.000002 -0.214264 65.900220 -7.125203 -1.772370 25.245390 7.354977 0.255590 
31.851995 2.941793 98.195801 -3.168350 0.135678 4.621670 -0.952612 -0.244074 0.481604 2.099695 -0.483343 0.961532 3.744697 -0.471791 0.967255 21.424393 -7.521256 -0.722860 -17.775318 10.875739 -0.349795 -14.727291 -41.230877 -16.856630 -134.889980 -161.882723 -91.197157 0.000001 0.000002 -0.000002 71.574085 7.658292 4.114757 -0.000005 -0.000003 -3.003603 -5.000200 -7.998720 0.000168 -10.893624 39.190413 11.663538 -135.931665 151.166922 99.002656 -0.000004 -0.000018 -0.000000 56.659923 -2.832042 0.223871 0.000000 -0.000004 3.000160 -5.000229 7.998771 -0.000154 -3.633480 -159.838325 7.693561 -179.999991 0.000004 -1.613995 159.038537 0.368858 -1.212691 -0.000002 0.000007 0.040408 66.142698 7.030405 2.014092 25.241857 -7.354955 -0.260153 -11.529438 158.769209 -5.569844 -0.000003 -0.000005 -1.642842 -25.109480 -0.262222 1.011644 -0.000004 0.000004 -0.203848 65.874497 -7.117713 -1.792336 25.216587 7.354757 0.290371 
31.841396 2.904801 98.504593 -3.207716 0.162228 4.616901 -0.935776 -0.239716 0.480027 2.133334 -0.475073 0.958476 3.778333 -0.463558 0.964100 21.331080 -7.771911 -0.651627 -17.729897 11.045166 -0.276675 -14.732851 -41.828359 -16.886026 -135.139965 -161.309821 -91.596511 0.000002 -0.000001 -0.000003 71.326798 7.527915 3.982521 -0.000004 -0.000002 -3.003601 -5.000197 -7.998723 0.000168 -10.866506 39.259330 11.631214 -135.788969 150.410738 99.062263 -0.000001 -0.000020 0.000000 56.643302 -2.752720 0.254202 0.000001 -0.000008 3.000150 -5.000231 7.998776 -0.000154 -3.415419 -160.058680 7.670973 -179.999991 0.000007 -1.614993 159.495531 0.288482 -1.208110 -0.000001 0.000006 0.027821 66.064383 7.029593 2.023850 25.230939 -7.354875 -0.273262 -11.239680 158.890472 -5.596129 -0.000002 -0.000004 -1.637600 -24.653640 -0.190056 1.018181 -0.000003 0.000001 -0.195939 65.863139 -7.108856 -1.814177 25.204462 7.354661 0.304995 
